<svg id="Capa_1" enable-background="new 0 0 512 512" height="512" viewBox="0 0 512 512" width="512" xmlns="http://www.w3.org/2000/svg" xmlns:xlink="http://www.w3.org/1999/xlink"><linearGradient id="lg1"><stop offset=".00000083866" stop-color="#96d1f3"/><stop offset="1" stop-color="#ccfff4"/></linearGradient><linearGradient id="SVGID_1_" gradientUnits="userSpaceOnUse" x1="147.333" x2="147.333" xlink:href="#lg1" y1="338.434" y2="504.434"/><linearGradient id="SVGID_2_" gradientUnits="userSpaceOnUse" x1="364.667" x2="364.667" xlink:href="#lg1" y1="338.434" y2="504.434"/><linearGradient id="SVGID_3_" gradientUnits="userSpaceOnUse" x1="256" x2="256" y1=".066" y2="511.934"><stop offset=".00000011981" stop-color="#174fa3"/><stop offset="1" stop-color="#b044af"/></linearGradient><g id="Filled_23_"><path d="m504.5 88.434h-497v131h23.5v285h450v-285h23.5z" fill="#fff"/><path d="m108 338.434h78.667v166h-78.667z" fill="url(#SVGID_1_)"/><path d="m325.333 338.434h78.667v166h-78.667z" fill="url(#SVGID_2_)"/><path d="m512 226.934v-146h-322.97v15h307.97v116h-320.17v15h296.67v270h-62v-166h-311v166h-62v-270h59.59v-15h-83.09v-116h48.35v-15h-63.35v146h23.5v270h-23.5v15h512v-15h-23.5v-270zm-115.5 270h-63.667v-151h63.667zm-78.667 0h-123.666v-151h123.666zm-202.333-151h63.667v151h-63.667zm11.915-143.618c4.058 0 8.049-.396 11.918-1.167v68.686c-.072.828-.558 5.252-2.895 9.424-3.02 5.388-7.852 8.008-14.771 8.008-9.466 0-17.167-7.701-17.167-17.167s7.701-17.167 17.167-17.167v-15c-17.737 0-32.167 14.43-32.167 32.167s14.43 32.167 32.167 32.167c24.643 0 32.138-20.81 32.657-31.813l.009-74.494c4.226-2.159 8.155-4.844 11.688-8.016 11.566-10.386 17.68-24.804 17.68-41.694 0-18.794-12.354-34.756-29.367-40.194v-29.654c26.121-11.76 50-23.253 50-43.835 0-17.92-14.579-32.5-32.5-32.5s-32.5 14.58-32.5 32.5v34.137c-32.592 14.76-70 33.719-70 71.863 0 19.77 6.27 36.331 18.129 47.892 10.49 10.226 24.679 15.857 39.952 15.857zm26.918-169.75c0-9.649 7.851-17.5 17.5-17.5s17.5 7.851 17.5 17.5c0 10.079-16.001 18.642-35 27.363zm0 89.716c8.545 4.587 14.367 13.61 14.367 23.968 0 14.287-5.831 24.963-14.367 31.844zm-15-39.081v20.921c-22.249 1.141-40 19.601-40 42.128h15c0-14.254 11.027-25.981 25-27.097v66.551c-3.878 1.071-7.902 1.612-11.918 1.612-11.339 0-21.81-4.12-29.482-11.599-8.896-8.672-13.6-21.519-13.6-37.151 0-26.863 27.191-42.452 55-55.365zm330.667 47.233h-263.844v-15h263.844zm-263.844 16h263.844v15h-263.844zm0 31h263.844v15h-263.844zm150.815 238.386-10.607-10.606 19.166-19.167 10.607 10.606zm8.558 11.227 10.607 10.606-19.166 19.167-10.607-10.606zm-223.558-11.227-10.607-10.606 19.166-19.167 10.607 10.606zm8.558 11.227 10.607 10.606-19.166 19.167-10.607-10.606zm291.304-124.78h-15v-15h15zm-30 0h-15v-15h15zm-30 0h-15v-15h15zm-30 0h-15v-15h15zm-30 0h-15v-15h15zm-30 0h-15v-15h15zm-30 0h-15v-15h15zm-30 0h-15v-15h15zm-30 0h-15v-15h15zm240-31h-15v-15h15zm-30 0h-15v-15h15zm-30 0h-15v-15h15zm-30 0h-15v-15h15zm-30 0h-15v-15h15zm-30 0h-15v-15h15zm-30 0h-15v-15h15zm-30 0h-15v-15h15zm-30 0h-15v-15h15z" fill="url(#SVGID_3_)"/></g></svg>