<svg id="Capa_1" enable-background="new 0 0 512.004 512.004" height="512" viewBox="0 0 512.004 512.004" width="512" xmlns="http://www.w3.org/2000/svg"><g><path d="m479.709 198.022c0-92.515-75.266-167.78-167.78-167.78s-167.78 75.266-167.78 167.78 75.266 167.78 167.78 167.78 167.78-75.265 167.78-167.78zm-167.78 152.781c-84.243 0-152.78-68.537-152.78-152.78s68.537-152.78 152.78-152.78 152.78 68.537 152.78 152.78-68.537 152.78-152.78 152.78z"/><path d="m377.907 94.498c-7.309 2.795-97.259 37.196-103.47 39.579-2.934 1.153-4.76 3.99-4.76 6.977v98.579c-6.456-3.833-14.565-6.091-23.478-6.091-21.576 0-38.478 13.206-38.478 30.064s16.901 30.063 38.478 30.063 38.478-13.205 38.478-30.063v-76.154l88.41-33.813v46.443c-6.455-3.833-14.564-6.091-23.477-6.091-21.576 0-38.478 13.205-38.478 30.063s16.901 30.063 38.478 30.063c21.575 0 38.477-13.205 38.477-30.063 0-5.093 0-117.522 0-122.553-.001-5.145-5.19-8.904-10.18-7.003zm-131.708 184.172c-12.727 0-23.478-6.898-23.478-15.063 0-8.166 10.751-15.064 23.478-15.064s23.478 6.898 23.478 15.064c-.001 8.164-10.752 15.063-23.478 15.063zm103.411-39.551c-12.727 0-23.478-6.898-23.478-15.063s10.751-15.063 23.478-15.063c12.726 0 23.477 6.898 23.477 15.063s-10.752 15.063-23.477 15.063zm23.476-101.538-88.41 33.813v-25.179l88.41-33.813z"/><path d="m311.929 0c-61.419 0-116.397 28.107-152.746 72.134h-89.845v-6.274c0-5.532-2.808-10.419-7.073-13.314v-37.027c0-8.557-6.962-15.519-15.518-15.519h-22.105c-8.557 0-15.517 6.962-15.517 15.519v37.027c-4.265 2.894-7.074 7.782-7.074 13.313v58.61c0 5.532 2.809 10.419 7.073 13.314v119.971c-4.265 2.895-7.073 7.782-7.073 13.314v58.61c0 5.532 2.809 10.419 7.073 13.314v153.493c0 8.557 6.961 15.519 15.518 15.519h22.104c8.557 0 15.519-6.962 15.519-15.519v-57.674c0-4.143-3.357-7.5-7.5-7.5s-7.5 3.357-7.5 7.5v57.674c0 .286-.232.519-.519.519h-22.104c-.285 0-.518-.232-.518-.519v-150.725h23.141v58.052c0 4.143 3.357 7.5 7.5 7.5s7.5-3.357 7.5-7.5v-60.819c4.265-2.895 7.073-7.782 7.073-13.314v-6.274h89.334c33.996 41.485 82.566 67.02 135.076 71.802 4.133.382 7.774-2.663 8.149-6.788.376-4.125-2.663-7.774-6.788-8.149-51.373-4.68-95.889-29.86-125.889-67.114-1.689-4.281-40.314-44.287-40.314-115.132.001-100.92 82.104-183.024 183.023-183.024 100.92 0 183.023 82.104 183.023 183.022 0 95.267-71.452 173.615-166.204 182.246-4.125.375-7.164 4.024-6.788 8.149.354 3.894 3.625 6.82 7.46 6.82.228 0 .458-.011.689-.032 101.198-9.216 179.843-94.294 179.843-197.184.001-109.189-88.832-198.021-198.023-198.021zm-287.804 15.519c0-.286.232-.519.518-.519h22.104c.286 0 .519.232.519.519v34.26h-23.141zm30.213 314.16c0 .596-.485 1.081-1.081 1.081h-35.125-.001c-.595 0-1.08-.485-1.08-1.081v-58.61c0-.595.484-1.081 1.08-1.081h.001 35.125c.596 0 1.081.485 1.081 1.081zm-30.213-74.692v-114.436h23.141v114.437h-23.141zm30.213-130.517c0 .596-.485 1.081-1.081 1.081h-35.125-.001c-.595 0-1.08-.485-1.08-1.081v-58.61c0-.596.484-1.081 1.08-1.081h35.126c.596 0 1.081.485 1.081 1.081zm93.168 183.934h-78.168v-16.062h68.435c2.676 4.933 6.257 10.892 9.733 16.062zm-33.599-110.382c0 27.614 5.717 54.552 16.548 79.32h-61.117v-6.274c0-5.532-2.808-10.419-7.073-13.314v-119.971c4.265-2.895 7.073-7.782 7.073-13.314v-6.274h61.391c-10.806 24.433-16.822 51.439-16.822 79.827zm24.149-94.827h-68.718v-16.061h78.518c-3.522 5.201-6.796 10.567-9.8 16.061z"/></g></svg>